<svg width="24" height="24" viewBox="0 0 24 24" fill="none" xmlns="http://www.w3.org/2000/svg">
<path d="M11.9978 0.000335582C9.16868 -0.00310771 6.4297 0.994509 4.26564 2.8166C2.10154 4.63849 0.651684 7.16763 0.172888 9.95568C-0.305922 12.744 0.217269 15.6119 1.64968 18.0512L0.0445333 22.8684C-0.0425039 23.1297 0.0013006 23.4168 0.162178 23.6403C0.32325 23.8635 0.581689 23.9961 0.856988 23.9963C0.919539 23.9961 0.981713 23.9894 1.04293 23.9766L6.6399 22.7314C8.80591 23.8136 11.2488 24.2149 13.6472 23.883C16.0459 23.5509 18.2877 22.5009 20.0782 20.8711C21.8687 19.2412 23.1244 17.1077 23.6799 14.7506C24.2355 12.3938 24.065 9.9242 23.1908 7.66636C22.3164 5.40833 20.7795 3.46763 18.7818 2.09927C16.7841 0.730951 14.4191 -0.000782918 11.9978 6.28612e-07L11.9978 0.000335582ZM11.9978 22.2824C10.3108 22.2815 8.64973 21.866 7.16085 21.0723C7.03669 21.0059 6.89801 20.9713 6.75721 20.9713C6.69466 20.9713 6.6323 20.978 6.57127 20.991L2.14908 21.9748L3.40109 18.2168C3.48373 17.9729 3.45217 17.7048 3.31539 17.4867C2.09953 15.5582 1.55951 13.2801 1.78023 11.0112C2.00098 8.74221 2.9699 6.61096 4.53469 4.95288C6.09948 3.29494 8.17103 2.20435 10.4235 1.85273C12.676 1.50113 14.9813 1.90859 16.9769 3.01081C18.9725 4.11306 20.5449 5.84774 21.4466 7.94127C22.3483 10.0352 22.5281 12.3694 21.9579 14.5769C21.3876 16.7841 20.0994 18.7391 18.2963 20.1342C16.4933 21.5291 14.2774 22.285 11.9975 22.2827L11.9978 22.2824Z" fill="white"/>
</svg>
