<!-- <svg width="24" height="24" viewBox="0 0 24 24" fill="none" xmlns="http://www.w3.org/2000/svg">
<circle cx="19.5" cy="19.5" r="19.5" fill="#30A193"/>
<path d="M21 6.63389V10.6727C20.9992 10.8235 20.9421 10.9678 20.8413 11.0732C20.7402 11.1788 20.6041 11.2368 20.4628 11.2343H19.2141V6.06916H20.4628C20.6045 6.06685 20.7412 6.1253 20.8423 6.23129C20.9431 6.33749 21 6.48244 21 6.63389L21 6.63389ZM3 6.63389V10.6727C3 10.9829 3.23542 11.2343 3.52599 11.2343H4.83671L4.83652 6.06917H3.52599C3.23505 6.07085 3 6.32326 3 6.63389H3ZM6.80245 20.0991C6.80245 20.3381 6.89132 20.5672 7.04964 20.7361C7.20777 20.9051 7.42239 21 7.64624 21H9.13411C9.35776 21 9.57238 20.9051 9.73071 20.7361C9.88883 20.5672 9.97771 20.3381 9.97771 20.0991V18.8709H6.80244L6.80245 20.0991ZM14.6548 20.0991C14.6548 20.3381 14.7437 20.5672 14.902 20.7361C15.0602 20.9051 15.2748 21 15.4986 21H16.9751C17.199 21 17.4136 20.9051 17.5717 20.7361C17.73 20.5672 17.8189 20.3381 17.8189 20.0991V18.8709H14.6548L14.6548 20.0991ZM18.6515 3.88295V13.3032H5.39861V3.88295C5.39861 3.64876 5.48572 3.4242 5.6409 3.25849C5.79588 3.09301 6.00619 3 6.22555 3H17.8246C18.0439 3 18.2542 3.09301 18.4092 3.25849C18.5644 3.42418 18.6515 3.64873 18.6515 3.88295H18.6515ZM16.9639 5.3484C16.9623 5.04718 16.7342 4.80336 16.4521 4.80191H7.59824C7.31612 4.80338 7.08797 5.0472 7.08641 5.3484V10.9581C7.08798 11.2589 7.31673 11.5017 7.59824 11.5017H16.4521C16.7336 11.5017 16.9624 11.2589 16.9639 10.9581V5.3484ZM5.39901 13.9037H18.6519V17.3962C18.6511 17.6298 18.5636 17.8537 18.4086 18.0185C18.2537 18.1834 18.0437 18.276 17.825 18.276H6.22595C6.0072 18.276 5.79728 18.1834 5.6423 18.0185C5.48732 17.8537 5.39982 17.6297 5.39903 17.3962L5.39901 13.9037ZM14.4864 16.0868C14.4864 16.3656 14.5902 16.6329 14.7748 16.83C14.9594 17.0271 15.2097 17.1379 15.4708 17.1379C15.7318 17.1379 15.9823 17.0271 16.1669 16.83C16.3515 16.6329 16.4551 16.3656 16.4551 16.0868C16.4551 15.8082 16.3515 15.5407 16.1669 15.3436C15.9823 15.1465 15.7317 15.0359 15.4708 15.0359C15.2097 15.0359 14.9594 15.1465 14.7748 15.3436C14.5902 15.5407 14.4864 15.8082 14.4864 16.0868ZM7.59578 16.0868C7.59578 16.3656 7.69936 16.6329 7.88397 16.83C8.06858 17.0271 8.31911 17.1379 8.58001 17.1379C8.84114 17.1379 9.09149 17.0271 9.27606 16.83C9.46067 16.6329 9.56445 16.3656 9.56445 16.0868C9.56445 15.8082 9.46067 15.5407 9.27606 15.3436C9.09145 15.1465 8.84111 15.0359 8.58001 15.0359C8.31909 15.0359 8.06854 15.1465 7.88397 15.3436C7.69936 15.5407 7.59578 15.8082 7.59578 16.0868Z" fill="white"/>
</svg> -->

<svg width="40" height="40" viewBox="0 0 40 40" fill="none" xmlns="http://www.w3.org/2000/svg">
<circle cx="19.5" cy="19.5" r="19.5" fill="#30A193"/>
<path d="M29 14.6339V18.6727C28.9992 18.8235 28.9421 18.9678 28.8413 19.0732C28.7242 19.1788 28.6041 19.2368 28.4628 19.2343H27.2141V14.0692H28.4628C28.6045 14.0669 28.7412 14.1253 28.8423 14.2313C28.9431 14.3375 29 14.4824 29 14.6339L29 14.6339ZM11 14.6339V18.6727C11 18.9829 11.2354 19.2343 11.526 19.2343H12.8367L12.8365 14.0692H11.526C11.235 14.0708 11 14.3233 11 14.6339H11ZM14.8024 28.0991C14.8024 28.3381 14.8913 28.5672 15.0496 28.7361C15.2078 28.9051 15.4224 29 15.6462 29H17.1341C17.3578 29 17.5724 28.9051 17.7307 28.7361C17.8888 28.5672 17.9777 28.3381 17.9777 28.0991V26.8709H14.8024L14.8024 28.0991ZM22.6548 28.0991C22.6548 28.3381 22.7437 28.5672 22.902 28.7361C23.0602 28.9051 23.2748 29 23.4986 29H24.9751C25.199 29 25.4136 28.9051 25.5717 28.7361C25.73 28.5672 25.8189 28.3381 25.8189 28.0991V26.8709H22.6548L22.6548 28.0991ZM26.6515 11.8829V21.3032H13.3986V11.8829C13.3986 11.6488 13.4857 11.4242 13.6409 11.2585C13.7959 11.093 14.0062 11 14.2255 11H25.8246C26.0439 11 26.2542 11.093 26.4092 11.2585C26.5644 11.4242 26.6515 11.6487 26.6515 11.8829H26.6515ZM24.9639 13.3484C24.9623 13.0472 24.7342 12.8034 24.4521 12.8019H15.5982C15.3161 12.8034 15.088 13.0472 15.0864 13.3484V18.9581C15.088 19.2589 15.3167 19.5017 15.5982 19.5017H24.4521C24.7336 19.5017 24.9624 19.2589 24.9639 18.9581V13.3484ZM13.399 21.9037H26.6519V25.3962C26.6511 25.6298 26.5636 25.8537 26.4086 26.0185C26.2537 26.1834 26.0437 26.276 25.825 26.276H14.2259C14.0072 26.276 13.7973 26.1834 13.6423 26.0185C13.4873 25.8537 13.3998 25.6297 13.399 25.3962L13.399 21.9037ZM22.4864 24.0868C22.4864 24.3656 22.5902 24.6329 22.7748 24.83C22.9594 25.0271 23.2097 25.1379 23.4708 25.1379C23.7318 25.1379 23.9823 25.0271 24.1669 24.83C24.3515 24.6329 24.4551 24.3656 24.4551 24.0868C24.4551 23.8082 24.3515 23.5407 24.1669 23.3436C23.9823 23.1465 23.7317 23.0359 23.4708 23.0359C23.2097 23.0359 22.9594 23.1465 22.7748 23.3436C22.5902 23.5407 22.4864 23.8082 22.4864 24.0868ZM15.5958 24.0868C15.5958 24.3656 15.6994 24.6329 15.884 24.83C16.0686 25.0271 16.3191 25.1379 16.58 25.1379C16.8411 25.1379 17.0915 25.0271 17.2761 24.83C17.4607 24.6329 17.5644 24.3656 17.5644 24.0868C17.5644 23.8082 17.4607 23.5407 17.2761 23.3436C17.0914 23.1465 16.8411 23.0359 16.58 23.0359C16.3191 23.0359 16.0685 23.1465 15.884 23.3436C15.6994 23.5407 15.5958 23.8082 15.5958 24.0868Z" fill="white"/>
</svg>
