<svg width="92" height="24" viewBox="0 0 92 24" fill="none" xmlns="http://www.w3.org/2000/svg">
<path d="M0 4C0 1.79086 1.79086 0 4 0H88C90.2091 0 92 1.79086 92 4V20C92 22.2091 90.2091 24 88 24H4C1.79086 24 0 22.2091 0 20V4Z" fill="url(#paint0_linear_7237_2974)"/>
<path d="M11.356 14.956V16H5.26V7.6H11.188V8.644H6.46V11.224H10.672V12.244H6.46V14.956H11.356ZM24.3097 16L24.2977 9.88L21.2617 14.98H20.7097L17.6737 9.916V16H16.5217V7.6H17.5057L21.0097 13.504L24.4657 7.6H25.4497L25.4617 16H24.3097ZM30.1307 9.58C31.0107 9.58 31.6827 9.796 32.1467 10.228C32.6187 10.66 32.8547 11.304 32.8547 12.16V16H31.7627V15.16C31.5707 15.456 31.2947 15.684 30.9347 15.844C30.5827 15.996 30.1627 16.072 29.6747 16.072C28.9627 16.072 28.3907 15.9 27.9587 15.556C27.5347 15.212 27.3227 14.76 27.3227 14.2C27.3227 13.64 27.5267 13.192 27.9347 12.856C28.3427 12.512 28.9907 12.34 29.8787 12.34H31.7027V12.112C31.7027 11.616 31.5587 11.236 31.2707 10.972C30.9827 10.708 30.5587 10.576 29.9987 10.576C29.6227 10.576 29.2547 10.64 28.8947 10.768C28.5347 10.888 28.2307 11.052 27.9827 11.26L27.5027 10.396C27.8307 10.132 28.2227 9.932 28.6787 9.796C29.1347 9.652 29.6187 9.58 30.1307 9.58ZM29.8667 15.184C30.3067 15.184 30.6867 15.088 31.0067 14.896C31.3267 14.696 31.5587 14.416 31.7027 14.056V13.168H29.9267C28.9507 13.168 28.4627 13.496 28.4627 14.152C28.4627 14.472 28.5867 14.724 28.8347 14.908C29.0827 15.092 29.4267 15.184 29.8667 15.184ZM36.0905 10.708C36.2905 10.34 36.5865 10.06 36.9785 9.868C37.3705 9.676 37.8465 9.58 38.4065 9.58V10.696C38.3425 10.688 38.2545 10.684 38.1425 10.684C37.5185 10.684 37.0265 10.872 36.6665 11.248C36.3145 11.616 36.1385 12.144 36.1385 12.832V16H34.9865V9.64H36.0905V10.708ZM40.9304 10.708C41.1304 10.34 41.4264 10.06 41.8184 9.868C42.2104 9.676 42.6864 9.58 43.2464 9.58V10.696C43.1824 10.688 43.0944 10.684 42.9824 10.684C42.3584 10.684 41.8664 10.872 41.5064 11.248C41.1544 11.616 40.9784 12.144 40.9784 12.832V16H39.8264V9.64H40.9304V10.708ZM50.3556 12.856C50.3556 12.944 50.3476 13.06 50.3316 13.204H45.1716C45.2436 13.764 45.4876 14.216 45.9036 14.56C46.3276 14.896 46.8516 15.064 47.4756 15.064C48.2356 15.064 48.8476 14.808 49.3116 14.296L49.9476 15.04C49.6596 15.376 49.2996 15.632 48.8676 15.808C48.4436 15.984 47.9676 16.072 47.4396 16.072C46.7676 16.072 46.1716 15.936 45.6516 15.664C45.1316 15.384 44.7276 14.996 44.4396 14.5C44.1596 14.004 44.0196 13.444 44.0196 12.82C44.0196 12.204 44.1556 11.648 44.4276 11.152C44.7076 10.656 45.0876 10.272 45.5676 10C46.0556 9.72 46.6036 9.58 47.2116 9.58C47.8196 9.58 48.3596 9.72 48.8316 10C49.3116 10.272 49.6836 10.656 49.9476 11.152C50.2196 11.648 50.3556 12.216 50.3556 12.856ZM47.2116 10.552C46.6596 10.552 46.1956 10.72 45.8196 11.056C45.4516 11.392 45.2356 11.832 45.1716 12.376H49.2516C49.1876 11.84 48.9676 11.404 48.5916 11.068C48.2236 10.724 47.7636 10.552 47.2116 10.552ZM57.9553 7.096V16H56.8513V14.992C56.5953 15.344 56.2713 15.612 55.8793 15.796C55.4873 15.98 55.0553 16.072 54.5833 16.072C53.9673 16.072 53.4153 15.936 52.9273 15.664C52.4393 15.392 52.0553 15.012 51.7753 14.524C51.5033 14.028 51.3673 13.46 51.3673 12.82C51.3673 12.18 51.5033 11.616 51.7753 11.128C52.0553 10.64 52.4393 10.26 52.9273 9.988C53.4153 9.716 53.9673 9.58 54.5833 9.58C55.0393 9.58 55.4593 9.668 55.8433 9.844C56.2273 10.012 56.5473 10.264 56.8033 10.6V7.096H57.9553ZM54.6793 15.064C55.0793 15.064 55.4433 14.972 55.7713 14.788C56.0993 14.596 56.3553 14.332 56.5393 13.996C56.7233 13.652 56.8153 13.26 56.8153 12.82C56.8153 12.38 56.7233 11.992 56.5393 11.656C56.3553 11.312 56.0993 11.048 55.7713 10.864C55.4433 10.68 55.0793 10.588 54.6793 10.588C54.2713 10.588 53.9033 10.68 53.5753 10.864C53.2553 11.048 52.9993 11.312 52.8073 11.656C52.6233 11.992 52.5313 12.38 52.5313 12.82C52.5313 13.26 52.6233 13.652 52.8073 13.996C52.9993 14.332 53.2553 14.596 53.5753 14.788C53.9033 14.972 54.2713 15.064 54.6793 15.064ZM63.507 9.58C64.123 9.58 64.675 9.716 65.163 9.988C65.651 10.26 66.031 10.64 66.303 11.128C66.583 11.616 66.723 12.18 66.723 12.82C66.723 13.46 66.583 14.028 66.303 14.524C66.031 15.012 65.651 15.392 65.163 15.664C64.675 15.936 64.123 16.072 63.507 16.072C63.051 16.072 62.631 15.984 62.247 15.808C61.871 15.632 61.551 15.376 61.287 15.04V18.328H60.135V9.64H61.239V10.648C61.495 10.296 61.819 10.032 62.211 9.856C62.603 9.672 63.035 9.58 63.507 9.58ZM63.411 15.064C63.819 15.064 64.183 14.972 64.503 14.788C64.831 14.596 65.087 14.332 65.271 13.996C65.463 13.652 65.559 13.26 65.559 12.82C65.559 12.38 65.463 11.992 65.271 11.656C65.087 11.312 64.831 11.048 64.503 10.864C64.183 10.68 63.819 10.588 63.411 10.588C63.011 10.588 62.647 10.684 62.319 10.876C61.999 11.06 61.743 11.32 61.551 11.656C61.367 11.992 61.275 12.38 61.275 12.82C61.275 13.26 61.367 13.652 61.551 13.996C61.735 14.332 61.991 14.596 62.319 14.788C62.647 14.972 63.011 15.064 63.411 15.064ZM70.5721 9.58C71.4521 9.58 72.1241 9.796 72.5881 10.228C73.0601 10.66 73.2961 11.304 73.2961 12.16V16H72.2041V15.16C72.0121 15.456 71.7361 15.684 71.3761 15.844C71.0241 15.996 70.6041 16.072 70.1161 16.072C69.4041 16.072 68.8321 15.9 68.4001 15.556C67.9761 15.212 67.7641 14.76 67.7641 14.2C67.7641 13.64 67.9681 13.192 68.3761 12.856C68.7841 12.512 69.4321 12.34 70.3201 12.34H72.1441V12.112C72.1441 11.616 72.0001 11.236 71.7121 10.972C71.4241 10.708 71.0001 10.576 70.4401 10.576C70.0641 10.576 69.6961 10.64 69.3361 10.768C68.9761 10.888 68.6721 11.052 68.4241 11.26L67.9441 10.396C68.2721 10.132 68.6641 9.932 69.1201 9.796C69.5761 9.652 70.0601 9.58 70.5721 9.58ZM70.3081 15.184C70.7481 15.184 71.1281 15.088 71.4481 14.896C71.7681 14.696 72.0001 14.416 72.1441 14.056V13.168H70.3681C69.3921 13.168 68.9041 13.496 68.9041 14.152C68.9041 14.472 69.0281 14.724 69.2761 14.908C69.5241 15.092 69.8681 15.184 70.3081 15.184ZM75.4279 7.096H76.5799V16H75.4279V7.096ZM78.7795 7.096H79.9315V16H78.7795V7.096ZM87.7591 9.64L84.6751 16.636C84.4031 17.284 84.0831 17.74 83.7151 18.004C83.3551 18.268 82.9191 18.4 82.4071 18.4C82.0951 18.4 81.7911 18.348 81.4951 18.244C81.2071 18.148 80.9671 18.004 80.7751 17.812L81.2671 16.948C81.5951 17.26 81.9751 17.416 82.4071 17.416C82.6871 17.416 82.9191 17.34 83.1031 17.188C83.2951 17.044 83.4671 16.792 83.6191 16.432L83.8231 15.988L81.0151 9.64H82.2151L84.4351 14.728L86.6311 9.64H87.7591Z" fill="white"/>
<defs>
<linearGradient id="paint0_linear_7237_2974" x1="46" y1="0" x2="46" y2="24" gradientUnits="userSpaceOnUse">
<stop stop-color="white" stop-opacity="0.4"/>
<stop offset="1" stop-color="white" stop-opacity="0.1"/>
</linearGradient>
</defs>
</svg>
