<svg width="41" height="40" viewBox="0 0 41 40" fill="none" xmlns="http://www.w3.org/2000/svg">
<circle cx="20.3706" cy="20" r="20" fill="#F7F7F7"/>
<path d="M27.8007 20.98C27.8407 20.66 27.8707 20.34 27.8707 20C27.8707 19.66 27.8407 19.34 27.8007 19.02L29.9107 17.37C30.1007 17.22 30.1507 16.95 30.0307 16.73L28.0307 13.27C27.9407 13.11 27.7707 13.02 27.5907 13.02C27.5307 13.02 27.4707 13.03 27.4207 13.05L24.9307 14.05C24.4107 13.65 23.8507 13.32 23.2407 13.07L22.8607 10.42C22.8307 10.18 22.6207 10 22.3707 10H18.3707C18.1207 10 17.9107 10.18 17.8807 10.42L17.5007 13.07C16.8907 13.32 16.3307 13.66 15.8107 14.05L13.3207 13.05C13.2607 13.03 13.2007 13.02 13.1407 13.02C12.9707 13.02 12.8007 13.11 12.7107 13.27L10.7107 16.73C10.5807 16.95 10.6407 17.22 10.8307 17.37L12.9407 19.02C12.9007 19.34 12.8707 19.67 12.8707 20C12.8707 20.33 12.9007 20.66 12.9407 20.98L10.8307 22.63C10.6407 22.78 10.5907 23.05 10.7107 23.27L12.7107 26.73C12.8007 26.89 12.9707 26.98 13.1507 26.98C13.2107 26.98 13.2707 26.97 13.3207 26.95L15.8107 25.95C16.3307 26.35 16.8907 26.68 17.5007 26.93L17.8807 29.58C17.9107 29.82 18.1207 30 18.3707 30H22.3707C22.6207 30 22.8307 29.82 22.8607 29.58L23.2407 26.93C23.8507 26.68 24.4107 26.34 24.9307 25.95L27.4207 26.95C27.4807 26.97 27.5407 26.98 27.6007 26.98C27.7707 26.98 27.9407 26.89 28.0307 26.73L30.0307 23.27C30.1507 23.05 30.1007 22.78 29.9107 22.63L27.8007 20.98ZM25.8207 19.27C25.8607 19.58 25.8707 19.79 25.8707 20C25.8707 20.21 25.8507 20.43 25.8207 20.73L25.6807 21.86L26.5707 22.56L27.6507 23.4L26.9507 24.61L25.6807 24.1L24.6407 23.68L23.7407 24.36C23.3107 24.68 22.9007 24.92 22.4907 25.09L21.4307 25.52L21.2707 26.65L21.0707 28H19.6707L19.4807 26.65L19.3207 25.52L18.2607 25.09C17.8307 24.91 17.4307 24.68 17.0307 24.38L16.1207 23.68L15.0607 24.11L13.7907 24.62L13.0907 23.41L14.1707 22.57L15.0607 21.87L14.9207 20.74C14.8907 20.43 14.8707 20.2 14.8707 20C14.8707 19.8 14.8907 19.57 14.9207 19.27L15.0607 18.14L14.1707 17.44L13.0907 16.6L13.7907 15.39L15.0607 15.9L16.1007 16.32L17.0007 15.64C17.4307 15.32 17.8407 15.08 18.2507 14.91L19.3107 14.48L19.4707 13.35L19.6707 12H21.0607L21.2507 13.35L21.4107 14.48L22.4707 14.91C22.9007 15.09 23.3007 15.32 23.7007 15.62L24.6107 16.32L25.6707 15.89L26.9407 15.38L27.6407 16.59L26.5707 17.44L25.6807 18.14L25.8207 19.27ZM20.3707 16C18.1607 16 16.3707 17.79 16.3707 20C16.3707 22.21 18.1607 24 20.3707 24C22.5807 24 24.3707 22.21 24.3707 20C24.3707 17.79 22.5807 16 20.3707 16ZM20.3707 22C19.2707 22 18.3707 21.1 18.3707 20C18.3707 18.9 19.2707 18 20.3707 18C21.4707 18 22.3707 18.9 22.3707 20C22.3707 21.1 21.4707 22 20.3707 22Z" fill="#94A196"/>
</svg>
