<svg width="75" height="24" viewBox="0 0 75 24" fill="none" xmlns="http://www.w3.org/2000/svg">
<path d="M0 4C0 1.79086 1.79086 0 4 0H71C73.2091 0 75 1.79086 75 4V20C75 22.2091 73.2091 24 71 24H4C1.79086 24 0 22.2091 0 20V4Z" fill="url(#paint0_linear_7237_2972)"/>
<path d="M12.484 7.6V16H11.284V12.256H6.46V16H5.26V7.6H6.46V11.212H11.284V7.6H12.484ZM14.8303 9.64H15.9823V16H14.8303V9.64ZM15.4063 8.416C15.1823 8.416 14.9943 8.344 14.8423 8.2C14.6983 8.056 14.6263 7.88 14.6263 7.672C14.6263 7.464 14.6983 7.288 14.8423 7.144C14.9943 6.992 15.1823 6.916 15.4063 6.916C15.6303 6.916 15.8143 6.988 15.9583 7.132C16.1103 7.268 16.1863 7.44 16.1863 7.648C16.1863 7.864 16.1103 8.048 15.9583 8.2C15.8143 8.344 15.6303 8.416 15.4063 8.416ZM21.7578 15.628C21.5898 15.772 21.3818 15.884 21.1338 15.964C20.8858 16.036 20.6298 16.072 20.3658 16.072C19.7258 16.072 19.2298 15.9 18.8778 15.556C18.5258 15.212 18.3498 14.72 18.3498 14.08V10.588H17.2698V9.64H18.3498V8.248H19.5018V9.64H21.3258V10.588H19.5018V14.032C19.5018 14.376 19.5858 14.64 19.7538 14.824C19.9298 15.008 20.1778 15.1 20.4978 15.1C20.8498 15.1 21.1498 15 21.3978 14.8L21.7578 15.628ZM28.6877 12.856C28.6877 12.944 28.6797 13.06 28.6637 13.204H23.5037C23.5757 13.764 23.8197 14.216 24.2357 14.56C24.6597 14.896 25.1837 15.064 25.8077 15.064C26.5677 15.064 27.1797 14.808 27.6437 14.296L28.2797 15.04C27.9917 15.376 27.6317 15.632 27.1997 15.808C26.7757 15.984 26.2997 16.072 25.7717 16.072C25.0997 16.072 24.5037 15.936 23.9837 15.664C23.4637 15.384 23.0597 14.996 22.7717 14.5C22.4917 14.004 22.3517 13.444 22.3517 12.82C22.3517 12.204 22.4877 11.648 22.7597 11.152C23.0397 10.656 23.4197 10.272 23.8997 10C24.3877 9.72 24.9357 9.58 25.5437 9.58C26.1517 9.58 26.6917 9.72 27.1637 10C27.6437 10.272 28.0157 10.656 28.2797 11.152C28.5517 11.648 28.6877 12.216 28.6877 12.856ZM25.5437 10.552C24.9917 10.552 24.5277 10.72 24.1517 11.056C23.7837 11.392 23.5677 11.832 23.5037 12.376H27.5837C27.5197 11.84 27.2997 11.404 26.9237 11.068C26.5557 10.724 26.0957 10.552 25.5437 10.552ZM33.0593 16.072C32.4113 16.072 31.8313 15.932 31.3193 15.652C30.8153 15.372 30.4193 14.988 30.1313 14.5C29.8433 14.004 29.6993 13.444 29.6993 12.82C29.6993 12.196 29.8433 11.64 30.1313 11.152C30.4193 10.656 30.8153 10.272 31.3193 10C31.8313 9.72 32.4113 9.58 33.0593 9.58C33.6353 9.58 34.1473 9.696 34.5953 9.928C35.0513 10.16 35.4033 10.496 35.6513 10.936L34.7753 11.5C34.5753 11.196 34.3273 10.968 34.0313 10.816C33.7353 10.664 33.4073 10.588 33.0473 10.588C32.6313 10.588 32.2553 10.68 31.9193 10.864C31.5913 11.048 31.3313 11.312 31.1393 11.656C30.9553 11.992 30.8633 12.38 30.8633 12.82C30.8633 13.268 30.9553 13.664 31.1393 14.008C31.3313 14.344 31.5913 14.604 31.9193 14.788C32.2553 14.972 32.6313 15.064 33.0473 15.064C33.4073 15.064 33.7353 14.988 34.0313 14.836C34.3273 14.684 34.5753 14.456 34.7753 14.152L35.6513 14.704C35.4033 15.144 35.0513 15.484 34.5953 15.724C34.1473 15.956 33.6353 16.072 33.0593 16.072ZM40.4568 9.58C41.2648 9.58 41.9048 9.816 42.3768 10.288C42.8568 10.752 43.0968 11.436 43.0968 12.34V16H41.9448V12.472C41.9448 11.856 41.7968 11.392 41.5008 11.08C41.2048 10.768 40.7808 10.612 40.2288 10.612C39.6048 10.612 39.1128 10.796 38.7528 11.164C38.3928 11.524 38.2128 12.044 38.2128 12.724V16H37.0608V7.096H38.2128V10.54C38.4528 10.236 38.7648 10 39.1488 9.832C39.5408 9.664 39.9768 9.58 40.4568 9.58ZM52.3754 16.096C51.5354 16.096 50.7754 15.912 50.0954 15.544C49.4234 15.168 48.8954 14.656 48.5114 14.008C48.1274 13.352 47.9354 12.616 47.9354 11.8C47.9354 10.984 48.1274 10.252 48.5114 9.604C48.8954 8.948 49.4274 8.436 50.1074 8.068C50.7874 7.692 51.5474 7.504 52.3874 7.504C53.0434 7.504 53.6434 7.616 54.1874 7.84C54.7314 8.056 55.1954 8.38 55.5794 8.812L54.7994 9.568C54.1674 8.904 53.3794 8.572 52.4354 8.572C51.8114 8.572 51.2474 8.712 50.7434 8.992C50.2394 9.272 49.8434 9.66 49.5554 10.156C49.2754 10.644 49.1354 11.192 49.1354 11.8C49.1354 12.408 49.2754 12.96 49.5554 13.456C49.8434 13.944 50.2394 14.328 50.7434 14.608C51.2474 14.888 51.8114 15.028 52.4354 15.028C53.3714 15.028 54.1594 14.692 54.7994 14.02L55.5794 14.776C55.1954 15.208 54.7274 15.536 54.1754 15.76C53.6314 15.984 53.0314 16.096 52.3754 16.096ZM57.1233 9.64H58.2753V16H57.1233V9.64ZM57.6993 8.416C57.4753 8.416 57.2873 8.344 57.1353 8.2C56.9913 8.056 56.9193 7.88 56.9193 7.672C56.9193 7.464 56.9913 7.288 57.1353 7.144C57.2873 6.992 57.4753 6.916 57.6993 6.916C57.9233 6.916 58.1073 6.988 58.2513 7.132C58.4033 7.268 58.4793 7.44 58.4793 7.648C58.4793 7.864 58.4033 8.048 58.2513 8.2C58.1073 8.344 57.9233 8.416 57.6993 8.416ZM64.0508 15.628C63.8828 15.772 63.6748 15.884 63.4268 15.964C63.1788 16.036 62.9228 16.072 62.6588 16.072C62.0188 16.072 61.5228 15.9 61.1708 15.556C60.8188 15.212 60.6428 14.72 60.6428 14.08V10.588H59.5628V9.64H60.6428V8.248H61.7948V9.64H63.6188V10.588H61.7948V14.032C61.7948 14.376 61.8788 14.64 62.0468 14.824C62.2228 15.008 62.4708 15.1 62.7908 15.1C63.1428 15.1 63.4428 15 63.6908 14.8L64.0508 15.628ZM70.9544 9.64L67.8704 16.636C67.5984 17.284 67.2784 17.74 66.9104 18.004C66.5504 18.268 66.1144 18.4 65.6024 18.4C65.2904 18.4 64.9864 18.348 64.6904 18.244C64.4024 18.148 64.1624 18.004 63.9704 17.812L64.4624 16.948C64.7904 17.26 65.1704 17.416 65.6024 17.416C65.8824 17.416 66.1144 17.34 66.2984 17.188C66.4904 17.044 66.6624 16.792 66.8144 16.432L67.0184 15.988L64.2104 9.64H65.4104L67.6304 14.728L69.8264 9.64H70.9544Z" fill="white"/>
<defs>
<linearGradient id="paint0_linear_7237_2972" x1="37.5" y1="0" x2="37.5" y2="24" gradientUnits="userSpaceOnUse">
<stop stop-color="white" stop-opacity="0.4"/>
<stop offset="1" stop-color="white" stop-opacity="0.1"/>
</linearGradient>
</defs>
</svg>
