<svg width="221" height="76" viewBox="0 0 221 76" fill="none" xmlns="http://www.w3.org/2000/svg">
<path d="M1 1L23.0986 11.5471C37.5171 18.4286 53.2915 22 69.268 22H74.5597C81.4828 22 88.3689 20.9893 95 19V19C101.631 17.0107 108.517 16 115.44 16H124.728C130.216 16 135.677 16.7649 140.954 18.2726L145.68 19.6228C151.155 21.1872 156.205 23.9727 160.449 27.7699L163.669 30.6511C169.606 35.9636 173 43.5537 173 51.521V54.7889C173 58.1868 174.006 61.5087 175.891 64.3359V64.3359C179.083 69.124 184.457 72 190.211 72H203.746C205.198 72 206.599 72.5328 207.685 73.4974V73.4974C211.013 76.4561 216.294 74.825 217.374 70.5045L220 60" stroke="white"/>
</svg>
